<svg width="77" height="77" viewBox="0 0 77 77" fill="none" xmlns="http://www.w3.org/2000/svg">
<path d="M12.0312 50.5312H55.3438V60.1562H12.0312V50.5312Z" fill="#81D4FA"/>
<path d="M48.125 50.5312H55.3438V60.1562H48.125V50.5312Z" fill="#4FC3F7"/>
<path d="M12.0312 50.5312H19.25V60.1562H12.0312V50.5312Z" fill="#B3E5FC"/>
<path d="M24.0625 50.5312H31.2812V60.1562H24.0625V50.5312Z" fill="#B3E5FC"/>
<path d="M36.0938 50.5312H43.3125V60.1562H36.0938V50.5312Z" fill="#B3E5FC"/>
<path d="M21.6562 60.1562H64.9688V69.7812H21.6562V60.1562Z" fill="#4FC3F7"/>
<path d="M21.6562 60.1562H28.875V69.7812H21.6562V60.1562Z" fill="#81D4FA"/>
<path d="M33.6875 60.1562H40.9062V69.7812H33.6875V60.1562Z" fill="#81D4FA"/>
<path d="M45.7188 60.1562H52.9375V69.7812H45.7188V60.1562Z" fill="#81D4FA"/>
<path d="M57.75 60.1562H64.9688V69.7812H57.75V60.1562Z" fill="#29B6F6"/>
<path d="M38.5 50.5312C50.4604 50.5312 60.1562 40.8354 60.1562 28.875C60.1562 16.9146 50.4604 7.21875 38.5 7.21875C26.5396 7.21875 16.8438 16.9146 16.8438 28.875C16.8438 40.8354 26.5396 50.5312 38.5 50.5312Z" fill="#B3E5FC"/>
<path d="M38.5 43.3125C46.4736 43.3125 52.9375 36.8486 52.9375 28.875C52.9375 20.9014 46.4736 14.4375 38.5 14.4375C30.5264 14.4375 24.0625 20.9014 24.0625 28.875C24.0625 36.8486 30.5264 43.3125 38.5 43.3125Z" fill="#81D4FA"/>
<path d="M38.5 7.21875C44.2436 7.21875 49.7519 9.50038 53.8133 13.5617C57.8746 17.6231 60.1563 23.1314 60.1562 28.875C60.1563 34.6186 57.8746 40.1269 53.8133 44.1883C49.7519 48.2496 44.2436 50.5312 38.5 50.5312V7.21875Z" fill="#4FC3F7"/>
<path d="M38.4991 21.6562C39.1372 21.6562 39.7493 21.9098 40.2005 22.361C40.6518 22.8123 40.9053 23.4243 40.9053 24.0625C40.9053 24.7007 41.1588 25.3127 41.6101 25.764C42.0613 26.2152 42.6734 26.4688 43.3115 26.4688C43.9497 26.4688 44.5618 26.2152 45.013 25.764C45.4643 25.3127 45.7178 24.7007 45.7178 24.0625C45.7186 22.5691 45.2561 21.1121 44.3942 19.8925C43.5323 18.6729 42.3133 17.7506 40.9053 17.2528V16.8438C40.9053 16.2056 40.6518 15.5935 40.2005 15.1423C39.7493 14.691 39.1372 14.4375 38.4991 14.4375C37.8609 14.4375 37.2488 14.691 36.7976 15.1423C36.3463 15.5935 36.0928 16.2056 36.0928 16.8438V17.2528C34.4846 17.8185 33.1286 18.9351 32.2648 20.4049C31.401 21.8746 31.0852 23.6027 31.3735 25.2829C31.6617 26.9631 32.5352 28.4872 33.8394 29.585C35.1436 30.6829 36.7943 31.2838 38.4991 31.2812C38.975 31.2812 39.4402 31.4224 39.8359 31.6868C40.2316 31.9512 40.54 32.327 40.7221 32.7667C40.9043 33.2064 40.9519 33.6902 40.8591 34.1569C40.7662 34.6237 40.537 35.0525 40.2005 35.389C39.864 35.7255 39.4353 35.9547 38.9685 36.0475C38.5017 36.1404 38.0179 36.0927 37.5782 35.9106C37.1385 35.7285 36.7627 35.42 36.4983 35.0243C36.2339 34.6286 36.0928 34.1634 36.0928 33.6875C36.0928 33.0493 35.8393 32.4373 35.388 31.986C34.9368 31.5348 34.3247 31.2812 33.6866 31.2812C33.0484 31.2812 32.4363 31.5348 31.9851 31.986C31.5338 32.4373 31.2803 33.0493 31.2803 33.6875C31.2795 35.1809 31.742 36.6379 32.6039 37.8575C33.4658 39.0771 34.6848 39.9994 36.0928 40.4972V40.9062C36.0928 41.5444 36.3463 42.1565 36.7976 42.6077C37.2488 43.059 37.8609 43.3125 38.4991 43.3125C39.1372 43.3125 39.7493 43.059 40.2005 42.6077C40.6518 42.1565 40.9053 41.5444 40.9053 40.9062V40.4972C42.5043 39.9353 43.8546 38.8287 44.7196 37.3713C45.5847 35.9138 45.9094 34.1985 45.6368 32.5257C45.3643 30.8529 44.5118 29.3294 43.2288 28.222C41.9458 27.1146 40.314 26.4939 38.6194 26.4688H38.4991C37.8609 26.4688 37.2488 26.2152 36.7976 25.764C36.3463 25.3127 36.0928 24.7007 36.0928 24.0625C36.0928 23.4243 36.3463 22.8123 36.7976 22.361C37.2488 21.9098 37.8609 21.6563 38.4991 21.6562Z" fill="#1E88E5"/>
<path d="M64.9688 57.75H57.75V50.5312C57.75 49.8931 57.4965 49.281 57.0452 48.8298C56.594 48.3785 55.9819 48.125 55.3438 48.125H52.9375C56.9777 45.0948 59.9621 40.8702 61.468 36.0497C62.9738 31.2291 62.9247 26.0569 61.3277 21.2658C59.7306 16.4746 56.6666 12.3074 52.5696 9.35449C48.4726 6.40152 43.5503 4.8125 38.5 4.8125C33.4497 4.8125 28.5274 6.40152 24.4304 9.35449C20.3334 12.3074 17.2694 16.4746 15.6723 21.2658C14.0753 26.0569 14.0262 31.2291 15.532 36.0497C17.0379 40.8702 20.0223 45.0948 24.0625 48.125H12.0312C11.3931 48.125 10.781 48.3785 10.3298 48.8298C9.87852 49.281 9.625 49.8931 9.625 50.5312V60.1562C9.625 60.7944 9.87852 61.4065 10.3298 61.8577C10.781 62.309 11.3931 62.5625 12.0312 62.5625H19.25V69.7812C19.25 70.4194 19.5035 71.0315 19.9548 71.4827C20.406 71.934 21.0181 72.1875 21.6562 72.1875H64.9688C65.6069 72.1875 66.219 71.934 66.6702 71.4827C67.1215 71.0315 67.375 70.4194 67.375 69.7812V60.1562C67.375 59.5181 67.1215 58.906 66.6702 58.4548C66.219 58.0035 65.6069 57.75 64.9688 57.75ZM19.25 28.875C19.25 25.0677 20.379 21.3459 22.4942 18.1803C24.6094 15.0146 27.6159 12.5473 31.1333 11.0903C34.6508 9.63333 38.5214 9.25212 42.2555 9.99488C45.9896 10.7376 49.4196 12.571 52.1118 15.2632C54.804 17.9554 56.6374 21.3854 57.3801 25.1195C58.1229 28.8536 57.7417 32.7242 56.2847 36.2417C54.8277 39.7591 52.3604 42.7656 49.1947 44.8808C46.0291 46.996 42.3073 48.125 38.5 48.125C33.3946 48.125 28.4983 46.0969 24.8882 42.4868C21.2781 38.8767 19.25 33.9804 19.25 28.875ZM14.4375 52.9375H52.9375V57.75H14.4375V52.9375ZM62.5625 67.375H24.0625V62.5625H62.5625V67.375Z" fill="#1E88E5"/>
</svg>
